<svg version="1.0" x="0px" y="0px" xmlns="http://www.w3.org/2000/svg" aria-hidden="true" role="img" width="33.4px" height="33.2px" viewBox="0 0 334 332">
	<g id="blender_frame_1">
		<g id="blender_object_GPencil">
			<g id="Text_Fills">
				<polygon fill="#00D8FF" stroke="none" fill-opacity="1" points="205.365662,212.343597 258.828979,242.229431 279.426697,206.699738 225.841370,176.425720" />
				<polygon stroke="#00D8FF" stroke-opacity="1" fill="none" stroke-linecap="round" stroke-width="10" points="205.365662,212.343597 258.828979,242.229431 279.426697,206.699738 225.841370,176.425720" />
				<polygon fill="#00D8FF" stroke="none" fill-opacity="1" points="176.667145,199.361633 180.553314,198.308197 184.227936,196.751495 187.691956,194.691437 190.946381,192.127686 193.954102,189.097992 196.488281,185.830780 198.511292,182.363403 200.023376,178.694977 201.024597,174.824463 201.514526,170.750793 201.492981,166.523834 200.960693,162.449829 199.917175,158.579803 198.361450,154.913727 196.292419,151.451630 193.708923,148.193604 190.648438,145.177795 187.341766,142.633087 183.827423,140.598724 180.105408,139.075897 176.175812,138.065643 172.038727,137.568970 167.746307,137.586395 163.610840,138.117371 159.685547,139.162140 155.971466,140.720886 152.469727,142.793610 149.181183,145.379974 146.145050,148.440796 143.591705,151.743835 141.559784,155.249603 140.049591,158.957214 139.060974,162.865509 138.593628,166.973480 138.646454,171.228455 139.214783,175.320831 140.297119,179.199097 141.892456,182.863281 143.999847,186.313446 146.618073,189.549591 149.706940,192.534271 153.032196,195.042450 156.554779,197.037689 160.274719,198.521179 164.192108,199.493958 168.307098,199.956970 172.568298,199.911530" />
				<polygon stroke="#00D8FF" stroke-opacity="1" fill="none" stroke-linecap="round" stroke-width="10" points="176.667145,199.361633 180.553314,198.308197 184.227936,196.751495 187.691956,194.691437 190.946381,192.127686 193.954102,189.097992 196.488281,185.830780 198.511292,182.363403 200.023376,178.694977 201.024597,174.824463 201.514526,170.750793 201.492981,166.523834 200.960693,162.449829 199.917175,158.579803 198.361450,154.913727 196.292419,151.451630 193.708923,148.193604 190.648438,145.177795 187.341766,142.633087 183.827423,140.598724 180.105408,139.075897 176.175812,138.065643 172.038727,137.568970 167.746307,137.586395 163.610840,138.117371 159.685547,139.162140 155.971466,140.720886 152.469727,142.793610 149.181183,145.379974 146.145050,148.440796 143.591705,151.743835 141.559784,155.249603 140.049591,158.957214 139.060974,162.865509 138.593628,166.973480 138.646454,171.228455 139.214783,175.320831 140.297119,179.199097 141.892456,182.863281 143.999847,186.313446 146.618073,189.549591 149.706940,192.534271 153.032196,195.042450 156.554779,197.037689 160.274719,198.521179 164.192108,199.493958 168.307098,199.956970 172.568298,199.911530" />
				<polygon fill="#00D8FF" stroke="none" fill-opacity="1" points="81.138550,244.945709 135.689697,213.181305 113.969238,177.345581 59.234650,209.234924" />
				<polygon stroke="#00D8FF" stroke-opacity="1" fill="none" stroke-linecap="round" stroke-width="10" points="81.138550,244.945709 135.689697,213.181305 113.969238,177.345581 59.234650,209.234924" />
				<polygon fill="#00D8FF" stroke="none" fill-opacity="1" points="148.455994,116.450073 190.864746,116.372986 190.464264,52.804199 147.741028,52.593597" />
				<polygon stroke="#00D8FF" stroke-opacity="1" fill="none" stroke-linecap="round" stroke-width="10" points="148.455994,116.450073 190.864746,116.372986 190.464264,52.804199 147.741028,52.593597" />
				<polygon fill="#00D8FF" stroke="none" fill-opacity="1" points="29.574585,141.972351 33.864502,124.194672 40.815399,106.629303 54.851990,80.954224 74.884399,62.611206 89.791962,50.962494 105.694916,41.671722 122.573822,34.744812 140.407043,30.182617 159.171051,27.980408 178.632568,28.127167 197.334106,30.597626 215.000427,35.372955 231.630249,42.434357 247.223450,51.760590 261.780823,63.329010 275.140747,76.947968 286.333496,91.600403 301.820190,123.496643 300.507629,81.775635 287.994507,65.302612 273.041443,49.976318 256.731628,36.943237 239.245544,26.421997 220.582031,18.441589 200.741150,13.028442 179.724304,10.206512 157.841309,10.000000 136.733124,12.442139 116.665497,17.547577 97.668182,25.322083 79.768494,35.764832 62.991180,48.868347 40.449493,69.508392 24.680878,98.412323 16.884766,118.182587 12.089966,138.186798 10.000000,159.186676 10.591858,180.881378 13.796753,201.635712 36.087616,215.815765 30.979218,198.410278 28.169312,179.938934 27.682343,160.641968" />
				<polygon stroke="#00D8FF" stroke-opacity="1" fill="none" stroke-linecap="round" stroke-width="10" points="29.574585,141.972351 33.864502,124.194672 40.815399,106.629303 54.851990,80.954224 74.884399,62.611206 89.791962,50.962494 105.694916,41.671722 122.573822,34.744812 140.407043,30.182617 159.171051,27.980408 178.632568,28.127167 197.334106,30.597626 215.000427,35.372955 231.630249,42.434357 247.223450,51.760590 261.780823,63.329010 275.140747,76.947968 286.333496,91.600403 301.820190,123.496643 300.507629,81.775635 287.994507,65.302612 273.041443,49.976318 256.731628,36.943237 239.245544,26.421997 220.582031,18.441589 200.741150,13.028442 179.724304,10.206512 157.841309,10.000000 136.733124,12.442139 116.665497,17.547577 97.668182,25.322083 79.768494,35.764832 62.991180,48.868347 40.449493,69.508392 24.680878,98.412323 16.884766,118.182587 12.089966,138.186798 10.000000,159.186676 10.591858,180.881378 13.796753,201.635712 36.087616,215.815765 30.979218,198.410278 28.169312,179.938934 27.682343,160.641968" />
				<polygon fill="#00D8FF" stroke="none" fill-opacity="1" points="36.087616,215.815765 43.475159,232.156494 53.120758,247.434418 65.001984,261.652344 78.924408,274.654694 93.849976,285.499298 109.607452,294.051056 126.197754,300.332520 143.622559,304.363739 161.884308,306.162506 140.464844,320.260590 120.928040,315.784607 102.314270,308.786346 84.621246,299.240509 67.847778,287.118805 52.186401,272.569000 38.806396,256.643127 27.929474,239.514557 19.584106,221.179596 13.796753,201.635712 10.591858,180.881378 10.000000,159.186676 12.089966,138.186798 16.884766,118.182587 24.680878,98.412323 40.449493,69.508392 62.991180,48.868347 79.768494,35.764832 97.668182,25.322083 116.665497,17.547577 136.733124,12.442139 157.841309,10.000000 179.724304,10.206512 200.741150,13.028442 220.582031,18.441589 239.245544,26.421997 256.731628,36.943237 273.041443,49.976318 287.994507,65.302612 300.507629,81.775635 317.782593,117.588684 322.598206,136.927246 324.897766,157.220947 324.704407,178.210754 322.049805,198.347504 316.948730,217.399780 309.407654,235.395050 299.427307,252.358246 287.002747,268.311798 272.303955,283.094330 256.397217,295.634796 239.442993,305.764893 221.419067,313.492035 202.300293,318.817749 182.059021,321.737946 198.832886,303.167755 215.916077,298.430664 232.023804,291.541534 247.176086,282.499084 261.390625,271.297424 274.522217,258.088226 285.616638,243.830231 294.521240,228.669464 301.239746,212.588074 305.771606,195.566223 308.111511,177.581970 308.248047,158.844757 306.157043,140.739105 301.820190,123.496643 286.333496,91.600403 275.140747,76.947968 261.780823,63.329010 247.223450,51.760590 231.630249,42.434357 215.000427,35.372955 197.334106,30.597626 178.632568,28.127167 159.171051,27.980408 140.407043,30.182617 122.573822,34.744812 105.694916,41.671722 89.791962,50.962494 74.884399,62.611206 54.851990,80.954224 40.815399,106.629303 33.864502,124.194672 29.574585,141.972351 27.682343,160.641968 28.169312,179.938934 30.979218,198.410278" />
				<polygon stroke="#00D8FF" stroke-opacity="1" fill="none" stroke-linecap="round" stroke-width="10" points="36.087616,215.815765 43.475159,232.156494 53.120758,247.434418 65.001984,261.652344 78.924408,274.654694 93.849976,285.499298 109.607452,294.051056 126.197754,300.332520 143.622559,304.363739 161.884308,306.162506 140.464844,320.260590 120.928040,315.784607 102.314270,308.786346 84.621246,299.240509 67.847778,287.118805 52.186401,272.569000 38.806396,256.643127 27.929474,239.514557 19.584106,221.179596 13.796753,201.635712 10.591858,180.881378 10.000000,159.186676 12.089966,138.186798 16.884766,118.182587 24.680878,98.412323 40.449493,69.508392 62.991180,48.868347 79.768494,35.764832 97.668182,25.322083 116.665497,17.547577 136.733124,12.442139 157.841309,10.000000 179.724304,10.206512 200.741150,13.028442 220.582031,18.441589 239.245544,26.421997 256.731628,36.943237 273.041443,49.976318 287.994507,65.302612 300.507629,81.775635 317.782593,117.588684 322.598206,136.927246 324.897766,157.220947 324.704407,178.210754 322.049805,198.347504 316.948730,217.399780 309.407654,235.395050 299.427307,252.358246 287.002747,268.311798 272.303955,283.094330 256.397217,295.634796 239.442993,305.764893 221.419067,313.492035 202.300293,318.817749 182.059021,321.737946 198.832886,303.167755 215.916077,298.430664 232.023804,291.541534 247.176086,282.499084 261.390625,271.297424 274.522217,258.088226 285.616638,243.830231 294.521240,228.669464 301.239746,212.588074 305.771606,195.566223 308.111511,177.581970 308.248047,158.844757 306.157043,140.739105 301.820190,123.496643 286.333496,91.600403 275.140747,76.947968 261.780823,63.329010 247.223450,51.760590 231.630249,42.434357 215.000427,35.372955 197.334106,30.597626 178.632568,28.127167 159.171051,27.980408 140.407043,30.182617 122.573822,34.744812 105.694916,41.671722 89.791962,50.962494 74.884399,62.611206 54.851990,80.954224 40.815399,106.629303 33.864502,124.194672 29.574585,141.972351 27.682343,160.641968 28.169312,179.938934 30.979218,198.410278" />
				<polygon fill="#00D8FF" stroke="none" fill-opacity="1" points="182.059021,321.737946 160.927826,322.236542 140.464844,320.260590 161.884308,306.162506 180.752075,305.749420 198.832886,303.167755" />
				<polygon stroke="#00D8FF" stroke-opacity="1" fill="none" stroke-linecap="round" stroke-width="10" points="182.059021,321.737946 160.927826,322.236542 140.464844,320.260590 161.884308,306.162506 180.752075,305.749420 198.832886,303.167755" />
			</g>
		</g>
	</g>
</svg>